<svg width="196" height="28" viewBox="0 0 196 28" fill="none" xmlns="http://www.w3.org/2000/svg">
<path d="M20.9135 15.6626L25.4477 9.7367C26.5053 8.35338 27.3172 6.82471 27.8652 5.19413C28.4148 3.57191 28.7005 1.86114 28.7005 0.118622H0V25.3441C0 26.2981 0.780205 27.0783 1.74251 27.0783H7.29584V7.4462H18.0984L11.6947 15.8547L20.8751 27.0783H30.286L20.9135 15.6626Z" fill="#0F3C19"/>
<path d="M55.4698 0.118622V20.2536H40.8163V0.118622H33.5221V25.1687C33.5221 26.2263 34.3808 27.0783 35.4317 27.0783H60.7758C61.8735 27.0783 62.7639 26.1878 62.7639 25.0902V0.118622H55.4698Z" fill="#0F3C19"/>
<path d="M90.305 0V15.5039L73.7185 0H68.1652V25.2807C68.1652 26.2747 68.9688 27.0783 69.9629 27.0783H75.451V11.6463L91.0752 26.1795C91.695 26.7609 92.5153 27.0783 93.3657 27.0783H97.5975V0H90.305Z" fill="#0F3C19"/>
<path d="M102.992 19.7908V25.6549C102.992 26.4401 103.629 27.0783 104.416 27.0783H130.652V19.7908H102.992ZM102.992 9.99064V16.8153L130.652 16.7836V9.9589L102.992 9.99064ZM102.992 1.33153V7.36601H130.652V0.0785217H104.245C103.553 0.0785217 102.992 0.639869 102.992 1.33153Z" fill="#0F3C19"/>
<path d="M162.822 7.36601V0.118622H137.216C136.087 0.118622 135.171 1.03415 135.171 2.16353V25.4394C135.171 26.3449 135.904 27.0783 136.81 27.0783H162.822V19.7908H142.457V7.36601H162.822Z" fill="#0F3C19"/>
<path d="M165.407 1.76923V6.94498H176.209V27.0783H183.535V6.94498H195.803V1.73582C195.803 0.843675 195.08 0.120273 194.188 0.120273H167.057C166.145 0.118602 165.407 0.85704 165.407 1.76923Z" fill="#0F3C19"/>
</svg>
