<svg width="68" height="123" viewBox="0 0 68 123" fill="none" xmlns="http://www.w3.org/2000/svg">
<path d="M59.2318 0H8.18809C3.67827 0 0 3.67827 0 8.18809V114.004C0 118.514 3.67851 122.192 8.18809 122.192H59.2318C63.7416 122.192 67.4198 118.513 67.4198 114.004V8.18809C67.4198 3.67827 63.7416 0 59.2318 0ZM33.7099 113.966C31.7699 113.966 30.2207 112.404 30.2207 110.477C30.2207 108.55 31.7702 106.987 33.7099 106.987C35.6372 106.987 37.1867 108.55 37.1867 110.477C37.1867 112.404 35.6372 113.966 33.7099 113.966ZM63.6406 100.651H3.77923V8.18809C3.77923 5.75691 5.75691 3.77899 8.18832 3.77899H59.232C61.6632 3.77899 63.6411 5.75667 63.6411 8.18809V100.651H63.6406Z" fill="#84C94F"/>
<path d="M25.0309 13.8569H42.3894C43.4332 13.8569 44.2791 13.0112 44.2791 11.9672C44.2791 10.9233 43.4334 10.0776 42.3894 10.0776H25.0309C23.9871 10.0776 23.1413 10.9233 23.1413 11.9672C23.1413 13.0112 23.9871 13.8569 25.0309 13.8569Z" fill="#84C94F"/>
<path d="M33.7099 36.7079C24.7156 36.7079 17.3965 44.0268 17.3965 53.0211C17.3965 62.0154 24.7153 69.3345 33.7099 69.3345C42.7045 69.3345 50.0233 62.0157 50.0233 53.0211C50.0233 44.027 42.7043 36.7079 33.7099 36.7079ZM40.2857 50.6152L32.8029 58.098C32.4251 58.4759 31.9463 58.6522 31.4675 58.6522C30.9763 58.6522 30.4976 58.4759 30.1321 58.098L27.1343 55.1124C26.3911 54.3692 26.3911 53.1724 27.1343 52.4418C27.8649 51.6986 29.0617 51.6986 29.8049 52.4418L31.4678 54.0921L37.6152 47.9447C38.3584 47.2014 39.5551 47.2014 40.2857 47.9447C41.0287 48.6753 41.0287 49.872 40.2857 50.6152Z" fill="#84C94F"/>
</svg>
