<svg width="108" height="123" viewBox="0 0 108 123" fill="none" xmlns="http://www.w3.org/2000/svg">
<path d="M36.9326 39.6831V42.2462H35.6566C30.4723 42.2462 26.2546 46.4639 26.2546 51.6482V80.5882C26.2546 85.7725 30.4723 89.9902 35.6566 89.9902H72.2256C77.4099 89.9902 81.6279 85.7725 81.6279 80.5882V51.6485C81.6279 46.4641 77.4099 42.2465 72.2256 42.2465H70.9496V39.6833C70.9496 30.3047 63.3196 22.6746 53.941 22.6746C44.5624 22.6746 36.9326 30.3044 36.9326 39.6831ZM76.8543 51.6485V80.5884C76.8543 83.1406 74.778 85.2168 72.2256 85.2168H35.6566C33.1044 85.2168 31.0281 83.1406 31.0281 80.5884V51.6485C31.0281 49.0963 33.1044 47.02 35.6566 47.02H72.2256C74.778 47.0198 76.8543 49.0963 76.8543 51.6485ZM61.4028 39.6831V42.2462H46.4799V39.6831C46.4799 35.5687 49.8271 32.2215 53.9415 32.2215C58.0553 32.2217 61.4028 35.569 61.4028 39.6831Z" fill="#84C94F"/>
<path d="M50.1747 67.3812V72.7445C50.1747 74.8415 51.8745 76.5414 53.9715 76.5414C56.0686 76.5414 57.7684 74.8415 57.7684 72.7445V67.3812C59.379 66.2074 60.4266 64.3075 60.4266 62.162C60.4266 58.5969 57.5364 55.7067 53.9713 55.7067C50.4062 55.7067 47.516 58.5969 47.516 62.162C47.5163 64.3075 48.5638 66.2074 50.1747 67.3812Z" fill="#84C94F"/>
<path d="M105.719 13.9417C87.9901 12.2778 70.9088 7.66228 54.9496 0.223403C54.3107 -0.0744675 53.5722 -0.0744675 52.933 0.223403C36.9736 7.66252 19.8924 12.2778 2.16362 13.9417C0.937288 14.0567 0 15.0861 0 16.3179V48.4939C0 64.8932 5.10938 80.6094 14.7756 93.9436C24.4084 107.232 37.6927 116.962 53.1925 122.083C53.4357 122.163 53.6885 122.203 53.9412 122.203C54.1942 122.203 54.4467 122.163 54.6899 122.083C70.1897 116.962 83.474 107.232 93.1068 93.9436C102.773 80.6094 107.882 64.8932 107.882 48.4939V16.3179C107.882 15.0861 106.945 14.0567 105.719 13.9417ZM103.109 48.4939C103.109 63.8802 98.3136 78.6277 89.2417 91.142C80.3562 103.399 68.1628 112.43 53.9412 117.298C39.7196 112.43 27.526 103.399 18.6405 91.142C9.5686 78.6277 4.77356 63.8802 4.77356 48.4939V18.4768C21.9023 16.6385 38.4274 12.1151 53.9412 5.01606C69.4548 12.1151 85.9799 16.6385 103.109 18.4768V48.4939Z" fill="#84C94F"/>
</svg>
