<svg width="126" height="125" viewBox="0 0 126 125" fill="none" xmlns="http://www.w3.org/2000/svg">
<path d="M110.769 1.30992C109.837 0.763066 108.683 0.763066 107.731 1.30992C107.549 1.41119 107.387 1.53272 107.245 1.6745V1.69475H107.225C107.063 1.83653 106.941 1.95805 106.84 2.12008C106.435 2.62643 106.232 3.27456 106.232 3.94294V23.9944L95.7203 30.0706L85.2085 23.9944L85.1882 7.50764V6.98104V3.92269C85.1882 2.93024 84.6819 1.9783 83.8515 1.43145C83.7907 1.39094 83.7299 1.35043 83.6692 1.30992C83.2033 1.02637 82.6767 0.904844 82.1501 0.904844H22.6845C10.1675 0.904844 0 11.0926 0 23.5893V75.9863C0 88.5033 10.1675 98.6708 22.6845 98.6708H26.1884V115.279C26.1884 119.229 28.5379 122.712 32.1633 124.191C33.3583 124.677 34.5938 124.9 35.7888 124.9C38.28 124.9 40.6902 123.907 42.5131 122.024L65.9875 98.6708H80.6108C80.6513 98.8531 80.6716 99.0151 80.7121 99.1974C81.34 102.195 82.8185 104.95 85.006 107.157C88.0035 110.135 91.9936 111.795 96.2672 111.816H96.2874C100.52 111.816 104.511 110.155 107.508 107.157C110.384 104.281 112.004 100.494 112.146 96.4429C112.167 96.2606 112.167 96.0985 112.167 95.9163V88.5236V52.9778C114.293 51.6006 116.197 49.9802 117.878 48.1776C120.511 45.3421 122.577 42.0609 123.954 38.4557V38.4355C125.291 35.0125 126 31.3263 126 27.5591C125.98 16.7435 120.147 6.67723 110.769 1.30992ZM80.3678 92.5946H64.7317C63.9216 92.5946 63.1519 92.9187 62.5848 93.4858L38.1787 117.75C36.68 119.289 34.9381 118.763 34.452 118.56C33.9254 118.337 32.2646 117.507 32.2646 115.279V95.6327C32.2646 93.9516 30.9076 92.5946 29.2265 92.5946H22.6845C13.5297 92.5946 6.07619 85.1411 6.07619 75.9863V23.5893C6.07619 14.4345 13.5297 6.98104 22.6845 6.98104H73.5422C73.3802 7.16332 73.2384 7.32536 73.0763 7.50764C68.2154 12.9762 65.4203 20.0854 65.4203 27.5591C65.4203 38.395 71.1117 48.2384 80.3678 53.6867V92.5946ZM119.924 27.8426C119.883 31.1238 119.154 34.3037 117.878 37.2405C117.372 38.3747 116.784 39.4887 116.136 40.5419C114.03 43.8433 111.113 46.6586 107.589 48.6637C106.576 49.2308 105.969 50.3246 106.05 51.4993L106.09 91.8655V91.8857V95.9163C106.09 96.7062 106.009 97.4556 105.807 98.205C105.402 99.9671 104.511 101.567 103.194 102.863C101.351 104.727 98.9002 105.739 96.2874 105.739C96.2874 105.739 96.2874 105.739 96.2672 105.739C93.6341 105.719 91.1632 104.706 89.32 102.863C88.1251 101.668 87.2744 100.251 86.8288 98.6708C86.5655 97.7999 86.444 96.8682 86.444 95.9365V92.5946V51.8841C86.444 50.7296 85.7959 49.6967 84.7831 49.1701C76.5803 44.9978 71.4965 36.7341 71.4965 27.5793C71.4965 20.855 74.3321 14.475 79.112 9.95837L79.1323 25.7565C79.1323 26.8299 79.6994 27.8426 80.6513 28.3692L94.181 36.2075C95.1329 36.7544 96.2874 36.7544 97.2393 36.2075L110.789 28.3895C111.721 27.8426 112.308 26.8299 112.308 25.7565V23.8729V9.95837C117.088 14.475 119.924 20.8348 119.924 27.5591V27.8426Z" fill="#84C94F"/>
<path d="M20.9528 38.0141H40.5262C42.2053 38.0141 43.5643 36.6551 43.5643 34.976C43.5643 33.297 42.2053 31.9379 40.5262 31.9379H20.9528C19.2737 31.9379 17.9147 33.297 17.9147 34.976C17.9147 36.6551 19.2737 38.0141 20.9528 38.0141Z" fill="#84C94F"/>
<path d="M20.9528 52.8259H50.6532C52.3323 52.8259 53.6913 51.4669 53.6913 49.7879C53.6913 48.1088 52.3323 46.7498 50.6532 46.7498H20.9528C19.2737 46.7498 17.9147 48.1088 17.9147 49.7879C17.9147 51.4669 19.2737 52.8259 20.9528 52.8259Z" fill="#84C94F"/>
<path d="M64.829 61.5614H20.9528C19.2737 61.5614 17.9147 62.9204 17.9147 64.5995C17.9147 66.2786 19.2737 67.6376 20.9528 67.6376H64.831C66.51 67.6376 67.8691 66.2786 67.8691 64.5995C67.8691 62.9204 66.508 61.5614 64.829 61.5614Z" fill="#84C94F"/>
</svg>
